<svg xmlns="http://www.w3.org/2000/svg" viewBox="0 0 109 129"><defs><style>.cls-1{fill:#fff;}.cls-2,.cls-3{fill:none;stroke:#000;stroke-miterlimit:10;}.cls-2{stroke-width:1.55px;}.cls-3{stroke-width:7.5px;}</style></defs><g id="レイヤー_2" data-name="レイヤー 2"><g id="レイヤー_1-2" data-name="レイヤー 1"><polygon class="cls-1" points="1.92 113.3 1.92 1.92 59.97 1.92 90.6 20.07 90.6 113.3 1.92 113.3"/><path d="M59.44,3.85,88.68,21.17v90.2H3.85V3.85H59.44M60.5,0H0V115.22H92.53V19L60.5,0Z"/><line class="cls-2" x1="21.35" y1="27.79" x2="71.17" y2="27.79"/><line class="cls-1" x1="21.35" y1="27.79" x2="71.17" y2="27.79"/><line class="cls-2" x1="21.35" y1="48.12" x2="71.17" y2="48.12"/><line class="cls-1" x1="21.35" y1="48.12" x2="71.17" y2="48.12"/><line class="cls-2" x1="21.35" y1="68.46" x2="71.17" y2="68.46"/><line class="cls-1" x1="21.35" y1="68.46" x2="71.17" y2="68.46"/><line class="cls-2" x1="21.35" y1="90.14" x2="71.17" y2="90.14"/><line class="cls-1" x1="21.35" y1="90.14" x2="71.17" y2="90.14"/><polygon points="62.42 17.05 62.42 3.38 85.51 17.05 62.42 17.05"/><path d="M64.35,6.75l14.13,8.38H64.35V6.75M60.5,0V19h32L60.5,0Z"/><line class="cls-3" x1="33.82" y1="90.52" x2="109" y2="90.52"/><line class="cls-3" x1="73.29" y1="54.11" x2="73.29" y2="129"/></g></g></svg>