<svg xmlns="http://www.w3.org/2000/svg" viewBox="0 0 110.19 128.18"><defs><style>.cls-1{fill:#fff;}.cls-2,.cls-3{fill:none;stroke:#000;stroke-miterlimit:10;}.cls-2{stroke-width:1.59px;}.cls-3{stroke-width:11.84px;}</style></defs><g id="レイヤー_2" data-name="レイヤー 2"><g id="レイヤー_1-2" data-name="レイヤー 1"><polygon class="cls-1" points="1.97 116.56 1.97 1.97 61.37 1.97 92.71 20.64 92.71 116.56 1.97 116.56"/><path d="M60.82,4,90.74,21.77v92.81H4V4H60.82M61.91,0H0V118.53H94.68v-99L61.91,0Z"/><line class="cls-2" x1="21.85" y1="28.59" x2="72.83" y2="28.59"/><line class="cls-1" x1="21.85" y1="28.59" x2="72.83" y2="28.59"/><line class="cls-2" x1="21.85" y1="49.5" x2="72.83" y2="49.5"/><line class="cls-1" x1="21.85" y1="49.5" x2="72.83" y2="49.5"/><line class="cls-2" x1="21.85" y1="70.42" x2="72.83" y2="70.42"/><line class="cls-1" x1="21.85" y1="70.42" x2="72.83" y2="70.42"/><line class="cls-2" x1="21.85" y1="92.73" x2="72.83" y2="92.73"/><line class="cls-1" x1="21.85" y1="92.73" x2="72.83" y2="92.73"/><polygon points="63.88 17.55 63.88 3.47 87.51 17.55 63.88 17.55"/><path d="M65.86,7l14.48,8.62H65.86V7M61.91,0V19.52H94.68L61.91,0Z"/><line class="cls-3" x1="106" y1="58.81" x2="40.91" y2="124"/><line class="cls-3" x1="106" y1="124" x2="40.91" y2="58.81"/></g></g></svg>