<svg xmlns="http://www.w3.org/2000/svg" viewBox="0 0 112 141"><defs><style>.cls-1{fill:#fff;}.cls-2{fill:none;stroke:#000;stroke-miterlimit:10;stroke-width:1.89px;}</style></defs><g id="レイヤー_2" data-name="レイヤー 2"><g id="レイヤー_1-2" data-name="レイヤー 1"><polygon class="cls-1" points="2.34 138.66 2.34 2.34 72.58 2.34 109.66 24.55 109.66 138.66 2.34 138.66"/><path d="M71.94,4.68l35.38,21.2V136.32H4.68V4.68H71.94M73.23,0H0V141H112V23.22L73.23,0Z"/><line class="cls-2" x1="25.85" y1="34.01" x2="86.15" y2="34.01"/><line class="cls-1" x1="25.85" y1="34.01" x2="86.15" y2="34.01"/><line class="cls-2" x1="25.85" y1="58.89" x2="86.15" y2="58.89"/><line class="cls-1" x1="25.85" y1="58.89" x2="86.15" y2="58.89"/><line class="cls-2" x1="25.85" y1="83.77" x2="86.15" y2="83.77"/><line class="cls-1" x1="25.85" y1="83.77" x2="86.15" y2="83.77"/><line class="cls-2" x1="25.85" y1="110.31" x2="86.15" y2="110.31"/><line class="cls-1" x1="25.85" y1="110.31" x2="86.15" y2="110.31"/><polygon points="75.57 20.88 75.57 4.13 103.53 20.88 75.57 20.88"/><path d="M77.91,8.26,95.07,18.54H77.91V8.26M73.23,0V23.22H112L73.23,0Z"/></g></g></svg>