<svg xmlns="http://www.w3.org/2000/svg" viewBox="0 0 223.09 91.96"><defs><style>.cls-1{fill:#0366d6;}</style></defs><g id="レイヤー_2" data-name="レイヤー 2"><g id="レイヤー_1-2" data-name="レイヤー 1"><path class="cls-1" d="M0,.61H26.08L55.27,50.77h.25V.61H80.73V89.82H53.78L25.45,39.29H25.2V89.82H0Z"/><polygon class="cls-1" points="131.98 22.93 121.26 23.21 122.29 40.78 102.86 40.95 103.61 23.21 93.13 22.93 112.13 0 131.98 22.93"/><polygon class="cls-1" points="92.42 66.42 103.14 66.14 102.11 48.57 121.54 48.4 120.79 66.14 131.27 66.42 112.27 89.35 92.42 66.42"/><path class="cls-1" d="M143.49,56.28V1.13h26.08V57.77c0,8.24,4.49,13.35,14.1,13.35,8.86,0,13.35-5.74,13.35-13.85V1.13h26.07V56.28c0,22-13.1,35.68-39.8,35.68S143.49,78.61,143.49,56.28Z"/></g></g></svg>