<svg xmlns="http://www.w3.org/2000/svg" viewBox="0 0 150 125"><defs><style>.cls-1{fill:#fff;}</style></defs><g id="レイヤー_2" data-name="レイヤー 2"><g id="レイヤー_1-2" data-name="レイヤー 1"><path class="cls-1" d="M2,123V14.75A12.76,12.76,0,0,1,14.78,2h37.8c3,0,4,2.84,5.7,9.31a65.19,65.19,0,0,0,2.43,7.94l.5,1.27H148V123Z"/><path d="M52.58,4c.5,0,.91,0,1.56,1.14a31.42,31.42,0,0,1,2.18,6.66A68.81,68.81,0,0,0,58.83,20l1,2.55H146V121H4V14.75A10.74,10.74,0,0,1,14.78,4h37.8m0-4H14.78A14.76,14.76,0,0,0,0,14.75V125H150V18.52H62.58C59.13,9.88,59.46,0,52.58,0Z"/><path d="M25.4,83.83,48.08,54.69v-.16H26.72v-4H54v3.71L31,83.94v.16h23.9v4.29H25.4Z"/><path d="M70,50.5h4.77V88.39H70Z"/><path d="M91.49,50.5h15.79c4,0,7,1.33,9,3.66a10.91,10.91,0,0,1,2.54,7.2c0,7-4,11.13-12.24,11.13H96.26v15.9H91.49Zm4.77,18.13h10c5.35,0,7.9-2.71,7.9-7,0-4.56-2.81-6.95-7.63-6.95H96.26Z"/></g></g></svg>