<svg xmlns="http://www.w3.org/2000/svg" viewBox="0 0 148 129"><defs><style>.cls-1{fill:#fff;}.cls-2{fill:none;stroke:#000;stroke-miterlimit:10;stroke-width:7.61px;}</style></defs><g id="レイヤー_2" data-name="レイヤー 2"><g id="レイヤー_1-2" data-name="レイヤー 1"><path class="cls-1" d="M1.92,115.36V13.84A12.12,12.12,0,0,1,14.2,1.92H50.51c2.9,0,3.86,2.52,5.5,8.73a61.37,61.37,0,0,0,2.34,7.45l.49,1.19h83.35v96.07Z"/><path d="M50.51,3.83c1.46,0,2.2,1.83,3.65,7.31a61,61,0,0,0,2.42,7.68l1,2.39h82.72v92.23H3.83V13.84a10.2,10.2,0,0,1,10.37-10H50.51m0-3.83H14.2A14,14,0,0,0,0,13.84V117.27H144.11V17.37h-84C56.81,9.27,57.12,0,50.51,0Z"/><line class="cls-2" x1="72.05" y1="89.84" x2="148" y2="89.84"/><line class="cls-2" x1="111.93" y1="52.77" x2="111.93" y2="129"/></g></g></svg>