<svg xmlns="http://www.w3.org/2000/svg" viewBox="0 0 120.78 118"><defs><style>.cls-1,.cls-3{fill:#fff;}.cls-2{fill:none;stroke-width:1.59px;}.cls-2,.cls-3{stroke:#000;stroke-miterlimit:10;}.cls-3{stroke-width:3.93px;}</style></defs><g id="レイヤー_2" data-name="レイヤー 2"><g id="レイヤー_1-2" data-name="レイヤー 1"><polygon class="cls-1" points="1.97 116.03 1.97 1.97 61.16 1.97 92.4 20.55 92.4 116.03 1.97 116.03"/><path d="M60.62,3.93,90.44,21.67v92.4H3.93V3.93H60.62M61.7,0H0V118H94.37V19.44L61.7,0Z"/><line class="cls-2" x1="21.78" y1="28.46" x2="72.59" y2="28.46"/><line class="cls-1" x1="21.78" y1="28.46" x2="72.59" y2="28.46"/><line class="cls-2" x1="21.78" y1="49.28" x2="72.59" y2="49.28"/><line class="cls-1" x1="21.78" y1="49.28" x2="72.59" y2="49.28"/><line class="cls-2" x1="21.78" y1="70.11" x2="72.59" y2="70.11"/><line class="cls-1" x1="21.78" y1="70.11" x2="72.59" y2="70.11"/><line class="cls-2" x1="21.78" y1="92.32" x2="72.59" y2="92.32"/><line class="cls-1" x1="21.78" y1="92.32" x2="72.59" y2="92.32"/><polygon points="63.67 17.47 63.67 3.46 87.22 17.47 63.67 17.47"/><path d="M65.64,6.92,80.07,15.5H65.64V6.92M61.7,0V19.44H94.37L61.7,0Z"/><rect class="cls-3" x="50.95" y="47.13" width="68.32" height="24.71" transform="translate(-17.14 77.59) rotate(-44.99)"/><polygon class="cls-3" points="39.89 104.72 65.97 96.11 48.5 78.63 39.89 104.72"/></g></g></svg>